HIERARCHY
ROOT Hips
{
	OFFSET 0.00000 0.00000 0.00000
	CHANNELS 6 Xposition Yposition Zposition Zrotation Yrotation Xrotation 
	JOINT LHipJoint
	{
		OFFSET 0 0 0
		CHANNELS 3 Zrotation Yrotation Xrotation
		JOINT LeftUpLeg
		{
			OFFSET 1.30186 -1.90722 0.65024
			CHANNELS 3 Zrotation Yrotation Xrotation
			JOINT LeftLeg
			{
				OFFSET 2.56413 -7.04489 0.00000
				CHANNELS 3 Zrotation Yrotation Xrotation
				JOINT LeftFoot
				{
					OFFSET 2.79321 -7.67428 0.00000
					CHANNELS 3 Zrotation Yrotation Xrotation
					JOINT LeftToeBase
					{
						OFFSET 0.15723 -0.43198 2.08537
						CHANNELS 3 Zrotation Yrotation Xrotation
						End Site
						{
							OFFSET 0.00000 -0.00000 1.07411
						}
					}
				}
			}
		}
	}
	JOINT RHipJoint
	{
		OFFSET 0 0 0
		CHANNELS 3 Zrotation Yrotation Xrotation
		JOINT RightUpLeg
		{
			OFFSET -1.28627 -1.90723 0.65024
			CHANNELS 3 Zrotation Yrotation Xrotation
			JOINT RightLeg
			{
				OFFSET -2.56567 -7.04913 0.00000
				CHANNELS 3 Zrotation Yrotation Xrotation
				JOINT RightFoot
				{
					OFFSET -2.75597 -7.57198 0.00000
					CHANNELS 3 Zrotation Yrotation Xrotation
					JOINT RightToeBase
					{
						OFFSET -0.17500 -0.48081 2.22901
						CHANNELS 3 Zrotation Yrotation Xrotation
						End Site
						{
							OFFSET -0.00000 -0.00000 1.14762
						}
					}
				}
			}
		}
	}
	JOINT LowerBack
	{
		OFFSET 0 0 0
		CHANNELS 3 Zrotation Yrotation Xrotation
		JOINT Spine
		{
			OFFSET -0.04522 2.07467 -0.16566
			CHANNELS 3 Zrotation Yrotation Xrotation
			JOINT Spine1
			{
				OFFSET -0.01178 2.08825 -0.05393
				CHANNELS 3 Zrotation Yrotation Xrotation
				JOINT Neck
				{
					OFFSET 0 0 0
					CHANNELS 3 Zrotation Yrotation Xrotation
					JOINT Neck1
					{
						OFFSET -0.05182 1.80489 0.16014
						CHANNELS 3 Zrotation Yrotation Xrotation
						JOINT Head
						{
							OFFSET 0.14739 1.78840 -0.33342
							CHANNELS 3 Zrotation Yrotation Xrotation
							End Site
							{
								OFFSET 0.04364 1.83899 -0.13460
							}
						}
					}
				}
				JOINT LeftShoulder
				{
					OFFSET 0 0 0
					CHANNELS 3 Zrotation Yrotation Xrotation
					JOINT LeftArm
					{
						OFFSET 3.01264 1.29090 -0.06579
						CHANNELS 3 Zrotation Yrotation Xrotation
						JOINT LeftForeArm
						{
							OFFSET 5.55680 -0.00000 0.00000
							CHANNELS 3 Zrotation Yrotation Xrotation
							JOINT LeftHand
							{
								OFFSET 3.63979 -0.00000 -0.00000
								CHANNELS 3 Zrotation Yrotation Xrotation
								JOINT LeftFingerBase
								{
									OFFSET 0 0 0
									CHANNELS 3 Zrotation Yrotation Xrotation
									JOINT LeftHandIndex1
									{
										OFFSET 0.56942 -0.00000 -0.00000
										CHANNELS 3 Zrotation Yrotation Xrotation
										End Site
										{
											OFFSET 0.45908 -0.00000 -0.00000
										}
									}
								}
								JOINT LThumb
								{
									OFFSET 0 0 0
									CHANNELS 3 Zrotation Yrotation Xrotation
									End Site
									{
										OFFSET 0.46609 -0.00000 0.46609
									}
								}
							}
						}
					}
				}
				JOINT RightShoulder
				{
					OFFSET 0 0 0
					CHANNELS 3 Zrotation Yrotation Xrotation
					JOINT RightArm
					{
						OFFSET -3.15796 1.37283 -0.36748
						CHANNELS 3 Zrotation Yrotation Xrotation
						JOINT RightForeArm
						{
							OFFSET -5.34339 -0.00000 0.00000
							CHANNELS 3 Zrotation Yrotation Xrotation
							JOINT RightHand
							{
								OFFSET -3.65101 -0.00000 -0.00000
								CHANNELS 3 Zrotation Yrotation Xrotation
								JOINT RightFingerBase
								{
									OFFSET 0 0 0
									CHANNELS 3 Zrotation Yrotation Xrotation
									JOINT RightHandIndex1
									{
										OFFSET -0.69425 -0.00000 -0.00000
										CHANNELS 3 Zrotation Yrotation Xrotation
										End Site
										{
											OFFSET -0.55972 -0.00000 -0.00000
										}
									}
								}
								JOINT RThumb
								{
									OFFSET 0 0 0
									CHANNELS 3 Zrotation Yrotation Xrotation
									End Site
									{
										OFFSET -0.56827 -0.00000 0.56827
									}
								}
							}
						}
					}
				}
			}
		}
	}
}
MOTION
Frames: 7
Frame Time: .0083333
4.1694 18.8402 34.9038 0 0 0 0 0 0 -21 0 0 0 0 0 0 0 0 0 0 0 0 0 0 21 0 0 0 0 0 0 0 0 0 0 0 0 0 0 0 0 0 0 0 0 0 0 -16 0 0 21 0 0 11 0 0 0 -8 0 0 0 0 0 0 0 0 0 0 0 0 0 0 0 0 0 0 0 0 8 0 0 0 0 0 0 0 0 0 0 0 0 0 0 0 0 0
4.1694 18.8402 34.9038 176.7490 -1.2991 -171.7850 0.0000 0.0000 0.0000 -27.7020 -2.3126 5.9553 0.8652 5.9310 16.5843 0.7019 -1.5060 -15.3862 1.3532 -7.3640 -20.7984 0.0000 0.0000 0.0000 9.9342 16.6266 -29.9984 -1.7965 -8.4286 24.0237 0.1663 -9.3672 -9.7997 -0.0584 -1.5600 4.2912 -4.8824 -1.7118 2.5601 -0.8107 -2.4996 -0.6484 2.0013 -1.2101 -1.9326 -0.9183 -4.4958 -13.9919 -1.5877 -5.5711 13.4080 -0.8815 -2.8451 6.3504 -0.0000 0.0000 0.0000 -82.9290 -11.0655 34.9683 23.1147 -34.2140 -7.2027 -0.0000 0.0000 -12.6468 28.3174 19.3541 10.1247 -7.1250 0.0000 -0.0000 0.0237 51.7319 0.0039 -0.0000 0.0000 0.0000 92.4905 -15.4547 -14.3765 -11.7492 19.4274 -2.0181 0.0000 0.0000 15.5655 -15.5523 26.7689 -7.1447 7.1250 -0.0000 -0.0000 8.6543 -2.6143 8.3476
4.1629 18.8371 34.7359 176.8750 -1.4896 -171.7820 0.0000 0.0000 0.0000 -27.4325 -1.8010 7.1366 0.7330 5.4698 15.2536 0.6203 -1.4321 -14.4561 1.1172 -6.7147 -18.8728 0.0000 0.0000 0.0000 9.6476 17.8501 -29.2557 -1.4308 -7.5634 21.3955 0.1809 -10.2696 -11.2123 -0.1457 -2.4601 6.7790 -4.6621 -1.6274 2.1937 -0.8597 -2.3453 -0.2568 1.8023 -1.1550 -1.3446 -0.4972 -4.5647 -14.7038 -1.4158 -5.7871 13.5440 -0.9362 -2.9175 6.5054 -0.0000 -0.0000 0.0000 -82.5037 -12.0429 36.0664 23.5125 -34.6444 -7.4276 -0.0000 0.0000 -12.5057 28.4493 20.4309 10.7101 -7.1250 0.0000 -0.0000 -0.0581 52.9409 -0.0113 -0.0000 -0.0000 0.0000 93.0451 -14.7266 -15.7493 -11.7118 19.3710 -2.0057 0.0000 0.0000 16.1992 -19.0716 25.8431 -8.5703 7.1250 -0.0000 -0.0000 6.4560 -2.9947 6.1496
4.1636 18.8322 34.5688 176.8950 -1.6367 -171.8260 0.0000 0.0000 0.0000 -27.0840 -0.7167 7.9772 0.6324 5.0884 14.1609 0.5323 -1.9251 -13.2537 1.1873 -6.9149 -19.4636 0.0000 0.0000 0.0000 9.1355 19.3567 -28.5364 -1.1594 -6.8361 19.2306 0.2634 -11.4775 -11.7322 -0.0476 -1.4079 3.8720 -4.7856 -2.0009 1.9342 -0.5577 -2.8110 -0.0274 2.1763 -1.3960 -0.9114 -1.2733 -4.1015 -15.4938 -0.7076 -5.0897 14.2522 -0.5474 -2.5539 6.9142 0.0000 0.0000 0.0000 -82.5330 -12.4862 35.6495 23.9106 -35.0696 -7.6551 -0.0000 0.0000 -12.5753 28.3447 20.0501 10.4783 -7.1250 0.0000 -0.0000 -0.0871 52.5024 -0.0161 0.0000 0.0000 0.0000 92.4499 -14.6624 -14.0868 -11.9473 19.7255 -2.0845 0.0000 0.0000 15.6018 -18.5905 26.6458 -8.5781 7.1250 -0.0000 -0.0000 6.8227 -2.2556 6.5963
4.1661 18.8283 34.4005 176.9600 -1.7877 -171.8830 0.0000 0.0000 0.0000 -26.6814 0.3052 8.8647 0.5368 4.6946 13.0394 0.4487 -2.3101 -12.0677 1.3290 -7.3003 -20.6081 0.0000 0.0000 0.0000 8.6937 20.7808 -27.7507 -0.9164 -6.0993 17.0729 0.3427 -12.6755 -12.5326 -0.0134 -0.7463 2.0509 -4.8903 -2.2382 1.9904 -0.2592 -3.1199 0.0530 2.5465 -1.5501 -0.8154 -1.1436 -4.1111 -14.6302 -1.3887 -5.0441 12.9810 -0.7416 -2.5930 6.3363 -0.0000 -0.0000 0.0000 -82.5688 -12.7722 35.6426 24.3327 -35.5141 -7.8990 -0.0000 0.0000 -12.8171 29.5292 20.0522 10.9912 -7.1250 0.0000 -0.0000 1.1450 52.7339 0.2179 -0.0000 -0.0000 0.0000 91.9016 -15.1002 -11.6687 -12.3755 20.3654 -2.2312 0.0000 0.0000 13.5239 -18.8325 26.6543 -8.6989 7.1250 -0.0000 -0.0000 6.6783 -2.2060 6.4608
4.1624 18.8259 34.2300 176.7420 -2.1642 -171.9010 0.0000 0.0000 0.0000 -26.6618 0.7007 9.8942 0.4551 4.3278 12.0009 0.3793 -2.3395 -11.0596 1.4232 -7.5440 -21.3374 0.0000 0.0000 0.0000 7.9159 21.9752 -27.1125 -0.7429 -5.5059 15.3574 0.3842 -13.7472 -13.9952 -0.0434 -1.3452 3.6991 -4.9232 -2.1720 2.1596 -0.3911 -3.0497 -0.0264 2.4382 -1.5105 -1.0032 -0.6678 -4.3685 -13.8431 -1.6102 -5.4775 12.3113 -0.8971 -2.8005 5.9684 0.0000 0.0000 0.0000 -82.2379 -12.8322 36.8803 24.7860 -35.9844 -8.1638 -0.0000 0.0000 -13.0225 30.5243 19.9697 11.3852 -7.1250 0.0000 -0.0000 2.2030 52.8380 0.4250 0.0000 0.0000 0.0000 92.3563 -15.6234 -11.2590 -12.7263 20.8848 -2.3548 0.0000 0.0000 12.0866 -19.6835 25.8854 -8.8764 7.1250 -0.0000 -0.0000 6.0899 -2.8478 5.8132
4.1572 18.8178 34.0545 176.4570 -2.6051 -171.9310 0.0000 0.0000 0.0000 -26.5814 1.3718 10.7613 0.3919 4.0199 11.1328 0.3066 -2.7683 -9.8704 1.5636 -7.8908 -22.3829 0.0000 0.0000 0.0000 7.1519 22.9684 -26.5586 -0.6284 -5.0724 14.1152 0.4013 -14.6676 -15.5805 -0.1438 -2.4441 6.7347 -4.9540 -2.2849 1.9965 -0.4755 -3.1913 0.1199 2.3597 -1.5915 -0.7535 -0.7883 -4.4089 -13.7434 -1.2411 -5.5697 12.1821 -0.7656 -2.8232 5.9247 -0.0000 -0.0000 0.0000 -82.0439 -13.0680 37.5404 25.2367 -36.4449 -8.4301 -0.0000 0.0000 -13.1544 24.7050 17.0934 7.7010 -7.1250 0.0000 -0.0000 -3.1214 48.6555 -0.2817 -0.0000 -0.0000 0.0000 92.5915 -15.3170 -12.0111 -12.7463 20.9143 -2.3619 0.0000 0.0000 12.4871 -18.6104 25.9339 -8.3776 7.1250 -0.0000 -0.0000 6.7435 -2.9785 6.4293
